<svg width="1000" height="1000" viewBox="0 0 1000 1000" fill="none" xmlns="http://www.w3.org/2000/svg">
<rect width="1000" height="1000" rx="100" fill="black"/>
<path fill-rule="evenodd" clip-rule="evenodd" d="M477.53 913.687C490.026 926.184 510.288 926.184 522.784 913.687L913.687 522.785C926.184 510.288 926.184 490.027 913.687 477.53L522.784 86.6272C510.288 74.1304 490.026 74.1304 477.53 86.6272L86.6269 477.53C74.1302 490.027 74.1302 510.288 86.6269 522.785L477.53 913.687ZM347.473 697.782L347.473 287.552C347.473 267.187 327.108 287.552 347.473 287.552L500.733 287.552C602.138 291.009 649.96 331.917 649.96 400.481C649.96 434.466 655.887 533.682 658.747 567.547C659.038 570.991 659.179 574.461 659.179 577.94C659.179 655.146 606.171 697.782 512.256 697.782L347.473 697.782C327.108 697.782 347.473 718.147 347.473 697.782Z" fill="url(#paint0_linear_4_3)"/>
<g filter="url(#filter0_d_4_3)">
<path fill-rule="evenodd" clip-rule="evenodd" d="M273.875 153.422C278.449 136.351 295.996 126.221 313.067 130.795L847.05 273.875C864.121 278.449 874.251 295.996 869.677 313.067L726.597 847.05C722.023 864.121 704.476 874.252 687.405 869.677L153.422 726.597C136.351 722.023 126.221 704.476 130.795 687.405L273.875 153.422ZM347.474 697.782L347.474 287.552L500.734 287.552C602.139 291.009 649.961 331.917 649.961 400.481C649.961 443.117 626.914 475.382 592.344 487.482C635.917 499.272 654.861 530.673 658.51 565.05C658.962 569.311 659.18 573.618 659.18 577.94C659.18 655.146 606.172 697.782 512.257 697.782L347.474 697.782Z" fill="url(#paint1_linear_4_3)"/>
<path d="M438.508 520.323L475.383 520.323L521.476 520.323C550.284 520.323 567.569 543.946 567.569 566.416L567.569 581.397C567.569 609.629 544.522 627.49 521.476 627.49L475.383 627.49L438.508 627.49L438.508 588.072L438.508 559.741L438.508 520.323Z" fill="url(#paint2_linear_4_3)"/>
<path d="M475.383 358.997L438.508 358.997L438.508 395.871L438.508 422.375L438.508 459.25L475.383 459.25L511.105 459.25C534.151 459.25 556.046 442.541 557.198 413.156L557.198 405.09C557.198 380.891 537.609 358.997 511.105 358.997L475.383 358.997Z" fill="url(#paint3_linear_4_3)"/>
</g>
<defs>
<filter id="filter0_d_4_3" x="129.696" y="129.697" width="743.079" height="749.079" filterUnits="userSpaceOnUse" color-interpolation-filters="sRGB">
<feFlood flood-opacity="0" result="BackgroundImageFix"/>
<feColorMatrix in="SourceAlpha" type="matrix" values="0 0 0 0 0 0 0 0 0 0 0 0 0 0 0 0 0 0 127 0" result="hardAlpha"/>
<feOffset dx="2" dy="8"/>
<feComposite in2="hardAlpha" operator="out"/>
<feColorMatrix type="matrix" values="0 0 0 0 0 0 0 0 0 0 0 0 0 0 0 0 0 0 0.25 0"/>
<feBlend mode="normal" in2="BackgroundImageFix" result="effect1_dropShadow_4_3"/>
<feBlend mode="normal" in="SourceGraphic" in2="effect1_dropShadow_4_3" result="shape"/>
</filter>
<linearGradient id="paint0_linear_4_3" x1="-147.215" y1="500.157" x2="936.314" y2="500.157" gradientUnits="userSpaceOnUse">
<stop stop-color="#0082CB"/>
<stop offset="1" stop-color="#2FCF3F"/>
</linearGradient>
<linearGradient id="paint1_linear_4_3" x1="823.922" y1="1060.88" x2="282.157" y2="122.513" gradientUnits="userSpaceOnUse">
<stop stop-color="#0082CB"/>
<stop offset="1" stop-color="#2FCF3F"/>
</linearGradient>
<linearGradient id="paint2_linear_4_3" x1="823.922" y1="1060.88" x2="282.157" y2="122.513" gradientUnits="userSpaceOnUse">
<stop stop-color="#0082CB"/>
<stop offset="1" stop-color="#2FCF3F"/>
</linearGradient>
<linearGradient id="paint3_linear_4_3" x1="823.922" y1="1060.88" x2="282.157" y2="122.513" gradientUnits="userSpaceOnUse">
<stop stop-color="#0082CB"/>
<stop offset="1" stop-color="#2FCF3F"/>
</linearGradient>
</defs>
</svg>
