<?xml version="1.0" standalone="no"?>
<!DOCTYPE svg PUBLIC "-//W3C//DTD SVG 20010904//EN"
 "http://www.w3.org/TR/2001/REC-SVG-20010904/DTD/svg10.dtd">
<svg version="1.0" xmlns="http://www.w3.org/2000/svg"
 width="1000.000000pt" height="1000.000000pt" viewBox="0 0 1000.000000 1000.000000"
 preserveAspectRatio="xMidYMid meet">

<g transform="translate(0.000000,1000.000000) scale(0.100000,-0.100000)"
fill="#000000" stroke="none">
<path d="M827 9984 c-389 -70 -691 -352 -799 -744 l-23 -85 0 -4155 0 -4155
27 -99 c98 -354 358 -614 715 -714 l98 -27 4155 0 4155 0 99 27 c354 98 614
358 714 715 l27 98 0 4155 0 4155 -28 100 c-67 246 -217 449 -433 588 -88 57
-164 91 -279 125 l-90 27 -4130 2 c-3513 1 -4142 -1 -4208 -13z m4313 -793
c32 -16 253 -230 750 -727 l705 -704 430 -115 c237 -64 666 -179 955 -256 289
-78 538 -148 553 -156 53 -27 110 -88 139 -148 49 -103 45 -124 -100 -670 -71
-264 -134 -502 -141 -530 -12 -51 -59 -225 -292 -1090 -231 -856 -252 -930
-268 -943 -9 -8 -11 -11 -4 -7 13 6 12 -4 -8 -87 -6 -27 -14 -46 -17 -44 -4 2
-8 -13 -8 -34 -1 -21 -7 -46 -14 -56 -11 -18 -11 -18 -5 1 5 16 4 17 -6 8 -9
-9 -16 -9 -25 -2 -8 7 -14 6 -20 -2 -4 -8 -3 -9 4 -5 7 4 12 3 12 -3 0 -13
-35 -32 -44 -24 -3 3 -6 -1 -6 -9 0 -9 -7 -19 -16 -22 -10 -4 -13 -13 -9 -28
5 -18 4 -20 -4 -8 -9 13 -11 12 -11 -3 0 -11 -4 -15 -12 -11 -8 5 -9 2 -5 -9
3 -9 3 -19 -2 -21 -10 -7 -11 26 0 39 4 6 10 26 13 45 3 19 3 29 0 23 -3 -7
-12 -13 -19 -13 -9 0 -11 -8 -7 -22 5 -21 4 -22 -11 -9 -15 12 -17 10 -17 -18
0 -19 -4 -30 -10 -26 -6 4 -7 11 -4 17 4 6 -3 5 -16 -2 -15 -8 -20 -8 -16 -1
10 15 -6 14 -29 -2 -14 -11 -15 -16 -5 -22 9 -6 11 -4 5 6 -7 11 -6 12 7 2 8
-7 18 -10 21 -6 4 3 7 1 7 -6 0 -7 5 -9 12 -5 7 4 8 3 4 -4 -5 -8 -13 -9 -25
-2 -12 6 -22 5 -29 -2 -7 -7 -12 -8 -12 -4 0 5 -7 3 -15 -4 -15 -13 -39 -5
-30 11 4 5 1 9 -4 9 -6 0 -11 -8 -12 -17 0 -13 -2 -14 -6 -4 -4 11 -7 11 -13
0 -5 -7 -3 -24 5 -39 13 -26 13 -27 -11 -22 -13 2 -24 8 -24 13 0 5 -4 9 -10
9 -5 0 -10 -9 -10 -19 0 -11 -5 -23 -10 -26 -6 -4 -7 -12 -3 -18 4 -7 -1 -5
-12 3 -17 14 -17 13 -10 -10 9 -29 3 -25 -15 9 -8 15 -8 21 -1 17 6 -4 11 -3
11 1 0 16 -38 34 -46 21 -4 -6 -3 -8 3 -5 6 4 13 -5 16 -21 7 -36 -1 -42 -23
-14 -10 12 -22 22 -26 22 -4 0 1 -9 11 -20 18 -20 16 -23 -20 -22 -17 1 -18 0
-2 -4 32 -10 16 -39 -20 -37 -20 1 -32 -3 -30 -10 1 -6 -9 -13 -22 -15 -15 -2
-21 0 -17 7 8 12 1 13 -31 5 -13 -4 -23 -10 -23 -16 0 -5 9 -4 21 2 16 9 20 9
17 -4 -2 -8 6 -22 17 -30 l20 -15 -20 4 c-11 2 -21 4 -22 5 -2 2 -6 3 -10 4
-5 1 -14 5 -21 10 -7 4 -16 5 -19 2 -4 -3 -1 -6 5 -6 21 0 1 -26 -21 -27 -12
0 -16 1 -9 4 18 7 15 20 -8 26 -22 6 -41 -18 -32 -42 3 -8 0 -11 -6 -7 -10 6
-28 -30 -24 -47 1 -5 -3 -5 -10 -1 -7 5 -24 8 -38 8 -20 0 -25 -5 -24 -25 1
-17 -4 -25 -17 -25 -10 0 -16 3 -13 7 2 4 -3 10 -12 13 -8 3 -12 2 -9 -4 3 -6
-1 -13 -9 -16 -9 -3 -13 -11 -9 -18 3 -6 3 -8 -2 -4 -4 4 -15 2 -24 -5 -14
-10 -14 -10 -4 4 10 13 10 19 -3 35 -14 18 -15 18 -5 -3 7 -14 8 -24 1 -28
-15 -10 -12 -23 8 -29 9 -3 4 -4 -12 -2 l-30 4 25 -19 24 -19 -26 9 c-15 5
-38 8 -53 7 -28 -3 -33 3 -14 22 9 9 15 9 27 -1 14 -11 14 -10 2 6 -12 16 -16
16 -31 2 -9 -8 -20 -12 -25 -8 -4 5 -3 -2 3 -13 6 -12 8 -25 4 -29 -4 -5 -2
-5 5 -1 6 3 15 2 18 -4 4 -6 3 -10 -2 -9 -22 4 -44 -2 -38 -10 3 -6 -7 -9 -22
-7 -16 1 -27 7 -26 12 2 12 -33 11 -44 -1 -5 -4 -2 -5 5 -1 6 4 12 2 12 -4 0
-6 6 -8 13 -4 6 4 9 4 5 -1 -4 -4 -4 -15 1 -24 5 -9 6 -24 2 -33 -5 -15 -8
-13 -18 7 -6 14 -7 23 -2 19 5 -3 9 -1 9 4 0 6 -7 12 -15 16 -8 3 -15 1 -15
-5 0 -6 -4 -8 -9 -5 -5 3 -11 -1 -14 -9 -4 -10 -1 -12 10 -8 11 4 14 2 9 -5
-4 -7 -14 -12 -22 -12 -8 0 -13 -4 -9 -9 3 -5 0 -13 -6 -17 -7 -4 -9 -3 -6 3
4 6 1 13 -7 16 -10 4 -12 -1 -9 -16 4 -18 3 -19 -6 -7 -9 13 -11 13 -11 -2 0
-10 -5 -17 -12 -15 -7 1 -12 -3 -13 -10 -1 -26 -11 -20 -10 8 0 21 4 28 15 24
8 -3 6 2 -5 11 -19 14 -20 14 -23 -6 -2 -14 -9 -20 -17 -16 -8 3 -17 0 -21 -6
-4 -7 -3 -8 4 -4 7 4 12 2 12 -4 0 -6 4 -9 9 -6 5 4 7 -3 4 -14 -3 -11 -10
-23 -16 -27 -5 -3 -7 -1 -3 5 3 6 2 13 -4 17 -5 3 -10 -1 -10 -9 0 -21 -10
-20 -26 1 -13 17 -14 17 -8 0 5 -13 1 -20 -14 -24 l-21 -5 22 -18 22 -19 -22
2 c-12 0 -20 4 -17 8 2 4 0 10 -5 14 -6 3 -7 15 -2 28 5 12 5 31 0 42 -7 19
-8 19 -8 -3 -1 -15 -5 -21 -13 -16 -7 5 -8 3 -3 -6 5 -8 9 -25 10 -38 1 -20
-3 -23 -24 -19 -24 5 -25 4 -7 -9 11 -8 17 -16 15 -19 -3 -3 -15 4 -27 15 -14
14 -22 16 -22 8 0 -9 -3 -9 -10 2 -8 12 -9 10 -7 -7 2 -12 7 -26 12 -30 4 -5
5 -1 0 7 -5 8 -4 12 0 7 11 -9 14 -47 4 -47 -4 0 -9 7 -13 15 -6 17 -42 20
-51 5 -3 -5 -11 -10 -16 -10 -6 0 -7 5 -4 11 4 6 -1 5 -13 -2 -12 -7 -17 -19
-14 -31 3 -12 -1 -18 -12 -18 -10 0 -15 4 -12 9 3 5 -2 15 -12 22 -15 12 -16
12 -4 -2 11 -14 9 -18 -14 -23 -20 -5 -24 -10 -15 -19 13 -13 15 -31 2 -23
-12 8 -44 -43 -37 -60 3 -8 -1 -14 -8 -14 -8 0 -13 8 -12 17 1 13 -7 18 -24
19 -14 0 -24 6 -22 12 1 7 -2 12 -8 12 -5 0 -10 -11 -10 -25 0 -14 5 -25 11
-25 5 0 8 4 5 8 -2 4 7 8 22 9 15 1 21 -1 14 -4 -6 -2 -10 -9 -7 -14 4 -5 -2
-6 -11 -2 -12 4 -15 3 -10 -5 8 -14 5 -15 -18 -6 -9 3 -16 14 -17 23 0 12 -3
10 -11 -7 -9 -18 -7 -26 8 -44 10 -13 12 -18 4 -12 -21 16 -60 24 -60 13 0 -5
-5 -9 -11 -9 -5 0 -8 4 -5 8 2 4 1 14 -3 21 -6 9 -11 10 -15 2 -4 -6 -3 -11 3
-11 5 0 8 -12 5 -27 -5 -24 -3 -25 13 -12 10 7 15 9 11 5 -4 -5 -2 -16 5 -25
10 -14 10 -14 -4 -4 -9 7 -19 10 -22 6 -4 -3 -9 2 -13 11 -3 9 -14 16 -24 16
-19 0 -20 -13 -5 -61 4 -11 2 -19 -5 -19 -6 0 -9 4 -5 9 3 5 -1 16 -9 24 -9 9
-11 18 -5 24 6 6 3 16 -9 26 -15 14 -19 14 -19 2 0 -8 4 -12 9 -9 9 6 11 -8 2
-30 -3 -9 -14 -16 -23 -15 -10 0 -11 2 -3 6 19 8 14 22 -6 16 -25 -6 -24 -29
1 -30 23 -2 42 -26 26 -32 -6 -2 -14 1 -18 7 -9 16 -84 10 -99 -8 -12 -13 -13
-13 -8 3 3 9 1 17 -5 17 -6 0 -9 -8 -7 -17 2 -10 10 -17 16 -15 7 1 12 -2 12
-7 0 -13 -42 -21 -55 -11 -13 11 -25 3 -25 -14 0 -6 4 -4 10 4 8 12 10 12 16
-3 3 -9 3 -25 -1 -35 -6 -15 -8 -15 -18 -2 -7 8 -22 15 -34 16 -18 0 -20 -2
-12 -13 9 -10 8 -13 -5 -13 -9 0 -16 7 -16 15 0 8 -4 15 -9 15 -21 0 -41 -13
-41 -27 0 -8 -5 -11 -12 -7 -10 5 -10 4 -1 -6 10 -11 10 -17 0 -29 -11 -14
-10 -14 6 -2 9 7 17 10 17 5 0 -5 4 -3 9 5 6 9 11 10 15 2 6 -10 3 -12 -19
-11 -3 0 -15 -9 -27 -20 -12 -11 -27 -20 -32 -20 -7 0 -8 3 -1 8 6 4 11 14 13
22 1 10 -2 9 -13 -4 -13 -18 -13 -22 2 -40 10 -12 11 -15 3 -9 -9 8 -17 9 -25
3 -9 -8 -11 -4 -8 14 6 30 -5 36 -37 20 l-25 -14 30 0 30 0 -28 -26 c-15 -14
-25 -29 -22 -34 7 -11 -24 -2 -43 13 -8 7 -9 14 -2 22 7 8 5 12 -5 12 -11 0
-14 -9 -11 -33 3 -21 -1 -37 -10 -45 -21 -17 -72 -19 -78 -3 -6 16 -26 19 -26
3 0 -5 3 -8 8 -6 4 2 15 -4 25 -15 14 -15 14 -18 2 -18 -21 0 -30 4 -28 12 2
4 -4 5 -12 2 -21 -8 -19 -34 3 -34 20 0 42 -18 42 -34 0 -6 -5 -3 -11 7 -5 9
-15 17 -20 17 -6 0 -7 -6 -3 -12 4 -7 -2 -5 -13 5 -17 15 -22 15 -31 4 -7 -8
-9 -16 -6 -19 3 -3 -17 -5 -45 -4 -29 1 -49 -3 -48 -9 1 -5 -4 -9 -11 -7 -10
2 -10 -2 -1 -20 11 -20 10 -21 -3 -10 -9 7 -24 9 -33 5 -14 -5 -17 -3 -12 10
4 11 2 14 -9 10 -13 -5 -13 -8 -1 -22 8 -9 18 -23 22 -31 8 -13 7 -13 -10 0
-17 14 -18 14 -7 -6 10 -18 8 -20 -11 -18 -12 1 -24 3 -27 4 -3 1 -8 2 -12 1
-5 0 -8 3 -8 9 0 5 -4 10 -9 10 -11 0 -8 -26 4 -37 4 -4 5 -2 1 4 -5 9 -2 11
10 6 11 -4 13 -8 6 -11 -7 -2 -10 -7 -8 -11 3 -4 -1 -8 -9 -8 -13 0 -31 42
-26 62 2 6 -1 7 -5 3 -4 -4 -14 -2 -23 4 -9 7 -13 8 -9 4 4 -5 0 -15 -9 -22
-15 -11 -14 -11 9 -7 22 4 26 2 23 -13 -1 -11 -8 -18 -15 -16 -6 1 -9 -2 -6
-7 4 -5 1 -13 -5 -16 -5 -4 -8 -13 -5 -21 3 -8 0 -11 -8 -8 -15 6 -17 34 -3
34 6 0 7 3 4 7 -4 3 -16 -3 -27 -14 -10 -12 -16 -24 -13 -27 4 -3 -1 -6 -10
-6 -11 0 -14 5 -10 17 5 13 2 15 -11 10 -10 -4 -22 -7 -27 -7 -4 0 -6 -7 -3
-15 6 -14 8 -13 21 2 8 10 12 13 9 6 -4 -6 -2 -14 4 -18 16 -10 1 -25 -17 -18
-10 4 -14 2 -10 -4 5 -8 -66 -11 -83 -3 -3 1 -12 3 -20 4 -8 0 -14 7 -12 14 2
9 -2 11 -14 4 -18 -10 20 -20 -734 182 -300 80 -966 258 -1480 396 -514 137
-954 259 -977 270 -63 29 -119 85 -150 148 -50 103 -45 137 100 675 70 257
129 482 132 500 2 17 18 82 34 142 232 868 364 1360 481 1800 77 292 147 546
155 565 8 19 98 348 200 730 102 382 216 807 253 945 73 272 91 312 170 372
58 44 140 67 211 60 31 -3 266 -62 523 -131 257 -69 473 -126 480 -126 7 0
177 164 378 364 339 338 393 385 460 407 48 16 181 4 230 -20z m4058 -4061
c22 -45 27 -69 27 -130 0 -146 24 -117 -730 -870 -366 -366 -665 -659 -665
-653 0 7 13 62 30 123 32 119 471 1757 551 2060 27 102 52 193 55 204 10 29
694 -658 732 -734z m-1395 -1550 c-3 -11 -9 -20 -15 -20 -5 0 -4 9 2 20 6 11
12 20 14 20 2 0 2 -9 -1 -20z m-38 0 c-4 -6 -1 -19 7 -28 12 -15 11 -16 -4 -3
-20 15 -24 41 -7 41 5 0 7 -5 4 -10z m-268 -141 c-2 -23 0 -23 -20 -1 -15 16
-15 18 3 19 13 1 18 -4 17 -18z m43 -1 c0 -4 -4 -8 -9 -8 -6 0 -12 4 -15 8 -3
5 1 9 9 9 8 0 15 -4 15 -9z m50 -13 c7 -9 8 -15 2 -15 -5 0 -12 7 -16 15 -3 8
-4 15 -2 15 2 0 9 -7 16 -15z m-251 -114 c-16 -5 -33 15 -24 30 6 9 12 7 22
-7 9 -13 10 -20 2 -23z m29 -7 c-3 -14 -5 -12 -10 9 -3 19 -2 25 4 19 6 -6 8
-18 6 -28z m-98 -28 c0 -3 -4 -8 -10 -11 -5 -3 -10 -1 -10 4 0 6 5 11 10 11 6
0 10 -2 10 -4z m-193 -45 c0 -11 -5 -18 -9 -15 -4 3 -5 11 -1 19 7 21 12 19
10 -4z m24 -30 c-7 -5 -11 -13 -7 -19 3 -6 2 -13 -3 -16 -5 -3 -11 3 -14 14
-5 18 5 28 28 29 6 0 4 -3 -4 -8z m-46 -20 c3 -5 2 -12 -3 -15 -5 -3 -9 1 -9
9 0 17 3 19 12 6z m-60 -89 c-17 -15 -18 -15 -6 0 7 9 9 23 5 30 -6 10 -4 11
7 0 11 -10 10 -15 -6 -30z m-104 -45 c-10 -9 -11 -8 -5 6 3 10 9 15 12 12 3
-3 0 -11 -7 -18z m84 -5 c-3 -3 -11 0 -18 7 -9 10 -8 11 6 5 10 -3 15 -9 12
-12z m-155 -18 c0 -8 -19 -13 -24 -6 -3 5 1 9 9 9 8 0 15 -2 15 -3z m50 -18
c0 -3 -4 -8 -10 -11 -5 -3 -10 -1 -10 4 0 6 5 11 10 11 6 0 10 -2 10 -4z
m-317 -161 c-3 -9 -8 -14 -10 -11 -3 3 -2 9 2 15 9 16 15 13 8 -4z m-43 -19
c0 -2 -7 -7 -16 -10 -8 -3 -12 -2 -9 4 6 10 25 14 25 6z m-213 -90 c0 -8 -11
-20 -24 -27 -12 -7 -23 -18 -23 -24 0 -6 -7 -12 -17 -12 -12 0 -10 6 10 23 15
12 23 24 19 27 -4 2 -2 2 5 1 6 -2 14 4 17 12 7 18 13 18 13 0z m94 -19 c-10
-9 -11 -8 -5 6 3 10 9 15 12 12 3 -3 0 -11 -7 -18z m-211 -26 c0 -6 -5 -13
-12 -17 -6 -4 -8 -3 -4 4 3 5 0 13 -6 15 -8 3 -6 6 5 6 9 1 17 -3 17 -8z m77
-37 c-3 -3 -12 -4 -19 -1 -8 3 -5 6 6 6 11 1 17 -2 13 -5z m-90 -30 c-3 -3
-12 -4 -19 -1 -8 3 -5 6 6 6 11 1 17 -2 13 -5z m-270 -116 c-3 -8 -6 -5 -6 6
-1 11 2 17 5 13 3 -3 4 -12 1 -19z m-117 -63 c0 -8 -5 -15 -11 -15 -5 0 -8 4
-5 9 4 5 -4 7 -16 4 -19 -4 -20 -3 -8 6 21 15 40 13 40 -4z m54 -20 c-4 -8 -8
-15 -10 -15 -2 0 -4 7 -4 15 0 8 4 15 10 15 5 0 7 -7 4 -15z m-84 -4 c0 -5 -8
-19 -18 -31 -17 -21 -18 -21 -32 -4 -14 17 -14 18 2 5 15 -11 19 -10 29 13 13
27 19 33 19 17z m-170 -56 c0 -8 -2 -15 -4 -15 -2 0 -12 -3 -21 -7 -15 -5 -16
-3 -6 15 13 25 31 29 31 7z m32 -29 c-4 -6 -7 -14 -7 -18 0 -18 -11 -14 -13 6
-1 14 4 23 13 23 8 0 11 -5 7 -11z m-1552 -356 c1051 -279 1766 -470 1779
-476 10 -3 -95 -115 -320 -340 -378 -379 -389 -387 -513 -388 -141 -1 -117
-21 -841 705 -352 352 -631 638 -620 636 11 -3 243 -65 515 -137z m1170 109
c0 -6 -4 -7 -10 -4 -5 3 -10 11 -10 16 0 6 5 7 10 4 6 -3 10 -11 10 -16z m-86
-18 c4 -5 -3 -7 -14 -4 -23 6 -26 13 -6 13 8 0 17 -4 20 -9z m-247 -167 c-3
-3 -12 -4 -19 -1 -8 3 -5 6 6 6 11 1 17 -2 13 -5z"/>
<path d="M3470 5075 l0 -2055 909 0 c559 0 949 4 1012 10 386 39 690 163 893
364 180 177 281 411 306 704 32 372 -80 673 -320 864 -66 52 -193 119 -273
144 l-57 18 77 38 c171 83 300 212 384 383 69 140 90 228 96 406 9 230 -22
383 -113 559 -182 354 -603 562 -1234 610 -75 5 -480 10 -907 10 l-773 0 0
-2055z m1733 1320 c178 -37 323 -185 357 -364 54 -287 -92 -547 -341 -606 -51
-12 -141 -15 -446 -15 l-383 0 0 500 0 500 373 0 c285 0 388 -4 440 -15z m132
-1619 c152 -40 274 -162 317 -314 24 -87 25 -310 3 -397 -41 -155 -167 -277
-332 -320 -46 -12 -139 -15 -495 -15 l-438 0 0 530 0 530 448 0 c341 0 459 -3
497 -14z"/>
<path d="M7845 3820 c-3 -6 1 -7 9 -4 18 7 21 14 7 14 -6 0 -13 -4 -16 -10z"/>
<path d="M7750 3775 c-9 -10 -9 -15 -1 -15 6 0 11 5 11 11 0 5 5 7 12 3 7 -4
8 -3 4 4 -9 15 -11 15 -26 -3z"/>
<path d="M7659 3723 c-13 -16 -12 -17 4 -4 9 7 17 15 17 17 0 8 -8 3 -21 -13z"/>
<path d="M7610 3691 c0 -6 4 -13 10 -16 6 -3 7 1 4 9 -7 18 -14 21 -14 7z"/>
<path d="M7803 3675 c0 -8 4 -12 9 -9 5 3 6 10 3 15 -9 13 -12 11 -12 -6z"/>
<path d="M7560 3676 c0 -2 8 -10 18 -17 15 -13 16 -12 3 4 -13 16 -21 21 -21
13z"/>
<path d="M7525 3660 c3 -6 1 -10 -6 -10 -7 0 -10 -3 -6 -6 3 -3 13 -2 22 4 16
8 16 9 1 15 -10 4 -15 3 -11 -3z"/>
<path d="M7743 3655 c0 -8 4 -12 9 -9 5 3 6 10 3 15 -9 13 -12 11 -12 -6z"/>
<path d="M7486 3623 c-6 -14 -5 -15 5 -6 7 7 10 15 7 18 -3 3 -9 -2 -12 -12z"/>
<path d="M7625 3590 c-3 -5 -1 -10 4 -10 6 0 11 5 11 10 0 6 -2 10 -4 10 -3 0
-8 -4 -11 -10z"/>
<path d="M7396 3577 c3 -10 9 -15 12 -12 3 3 0 11 -7 18 -10 9 -11 8 -5 -6z"/>
<path d="M7536 3572 c-3 -5 1 -9 9 -9 8 0 12 4 9 9 -3 4 -7 8 -9 8 -2 0 -6 -4
-9 -8z"/>
<path d="M7355 3556 c-18 -13 -18 -14 8 -9 15 3 24 9 21 14 -7 12 -7 12 -29
-5z"/>
<path d="M7506 3532 c-3 -5 1 -9 9 -9 8 0 12 4 9 9 -3 4 -7 8 -9 8 -2 0 -6 -4
-9 -8z"/>
<path d="M7433 3515 c0 -8 4 -12 9 -9 5 3 6 10 3 15 -9 13 -12 11 -12 -6z"/>
<path d="M7284 3509 c-3 -6 -2 -15 3 -20 5 -5 9 -1 10 11 2 22 -2 25 -13 9z"/>
<path d="M7506 3495 c4 -8 8 -15 10 -15 2 0 4 7 4 15 0 8 -4 15 -10 15 -5 0
-7 -7 -4 -15z"/>
<path d="M7239 3487 c6 -8 7 -18 3 -22 -4 -5 -1 -5 6 -1 18 10 15 36 -4 36
-13 0 -14 -3 -5 -13z"/>
<path d="M7445 3489 c-4 -6 -5 -12 -2 -15 2 -3 7 2 10 11 7 17 1 20 -8 4z"/>
<path d="M7168 3446 c-15 -13 -24 -27 -21 -30 4 -3 1 -6 -5 -6 -7 0 -12 6 -12
13 0 6 -5 4 -11 -6 -6 -10 -8 -21 -5 -24 3 -4 6 -2 6 4 0 5 14 9 30 8 17 -1
28 0 25 3 -3 3 -1 10 4 16 8 11 22 46 18 46 -1 0 -14 -11 -29 -24z"/>
<path d="M7378 3437 c2 -9 9 -20 15 -24 5 -3 7 -1 3 5 -3 6 3 13 14 17 29 9
25 20 -8 20 -23 0 -28 -4 -24 -18z"/>
<path d="M7280 3420 c0 -13 18 -22 24 -11 3 5 -1 11 -9 15 -8 3 -15 1 -15 -4z"/>
<path d="M7196 3388 c3 -4 9 -8 15 -8 5 0 9 4 9 8 0 5 -7 9 -15 9 -8 0 -12 -4
-9 -9z"/>
<path d="M7140 3340 c0 -5 5 -10 11 -10 5 0 7 5 4 10 -3 6 -8 10 -11 10 -2 0
-4 -4 -4 -10z"/>
<path d="M7210 3335 c0 -8 4 -15 10 -15 5 0 7 7 4 15 -4 8 -8 15 -10 15 -2 0
-4 -7 -4 -15z"/>
<path d="M7247 3336 c-3 -8 -2 -18 3 -21 13 -8 20 9 11 24 -6 10 -10 9 -14 -3z"/>
<path d="M6873 3269 c-2 -23 3 -25 10 -4 4 8 3 16 -1 19 -4 3 -9 -4 -9 -15z"/>
<path d="M7065 3280 c-4 -6 -10 -8 -14 -6 -4 3 -8 -1 -8 -9 0 -13 4 -12 19 2
18 16 22 23 14 23 -3 0 -8 -5 -11 -10z"/>
<path d="M6782 3234 c-14 -16 -5 -18 17 -5 7 5 9 11 5 14 -5 3 -15 -1 -22 -9z"/>
<path d="M6845 3240 c-3 -5 -1 -10 4 -10 6 0 11 5 11 10 0 6 -2 10 -4 10 -3 0
-8 -4 -11 -10z"/>
<path d="M6995 3200 c-4 -6 -11 -7 -17 -4 -7 4 -8 2 -4 -5 6 -9 11 -9 22 0 14
11 18 19 10 19 -3 0 -8 -5 -11 -10z"/>
<path d="M6640 3131 c-8 -6 -18 -7 -24 -4 -5 3 -6 1 -3 -5 8 -12 47 -4 47 9 0
11 -1 11 -20 0z"/>
<path d="M6870 3130 c0 -5 5 -10 11 -10 5 0 7 5 4 10 -3 6 -8 10 -11 10 -2 0
-4 -4 -4 -10z"/>
<path d="M6524 3075 c3 -23 22 -39 31 -26 4 7 1 10 -7 9 -8 -2 -12 4 -10 15 2
9 -1 17 -7 17 -5 0 -8 -7 -7 -15z"/>
<path d="M6426 3024 c-5 -14 -4 -15 9 -4 17 14 19 20 6 20 -5 0 -12 -7 -15
-16z"/>
<path d="M6690 3036 c0 -2 7 -9 15 -16 9 -7 15 -8 15 -2 0 5 -7 12 -15 16 -8
3 -15 4 -15 2z"/>
<path d="M6566 3001 c-3 -5 2 -15 12 -22 15 -12 16 -12 5 2 -7 9 -10 19 -6 22
3 4 4 7 0 7 -3 0 -8 -4 -11 -9z"/>
<path d="M6225 2900 c-4 -6 -11 -7 -17 -4 -7 4 -8 2 -4 -5 6 -8 12 -9 20 -2 7
6 16 8 19 4 4 -3 7 -1 7 5 0 15 -17 16 -25 2z"/>
<path d="M6439 2893 c-13 -16 -12 -17 4 -4 16 13 21 21 13 21 -2 0 -10 -8 -17
-17z"/>
<path d="M6151 2853 c-5 -10 -13 -15 -17 -11 -9 9 -34 -10 -34 -26 0 -6 5 -3
11 7 8 14 14 15 32 6 12 -7 19 -8 15 -4 -4 4 -3 16 3 26 12 24 3 25 -10 2z"/>
<path d="M6358 2828 c2 -10 6 -18 7 -18 1 0 5 8 7 18 3 11 0 19 -7 19 -7 0
-10 -8 -7 -19z"/>
<path d="M6064 2809 c-3 -6 -15 -9 -25 -6 -11 3 -17 2 -14 -3 8 -13 44 -19 42
-6 -1 6 4 10 11 9 6 -2 12 2 12 7 0 13 -17 13 -26 -1z"/>
<path d="M6258 2798 c10 -13 10 -17 0 -21 -8 -4 -7 -6 5 -6 9 -1 17 3 17 8 0
5 -8 15 -17 22 -16 13 -17 12 -5 -3z"/>
<path d="M6006 2774 c-4 -9 -4 -19 -1 -22 2 -3 7 3 11 12 4 9 4 19 1 22 -2 3
-7 -3 -11 -12z"/>
<path d="M6131 2738 c-14 -23 -14 -23 8 -4 22 20 25 26 13 26 -4 0 -13 -10
-21 -22z"/>
<path d="M5963 2735 c0 -8 4 -12 9 -9 5 3 6 10 3 15 -9 13 -12 11 -12 -6z"/>
<path d="M5890 2714 l-25 -14 27 2 c15 1 30 8 32 15 6 16 -2 15 -34 -3z"/>
<path d="M6098 2693 c7 -3 16 -2 19 1 4 3 -2 6 -13 5 -11 0 -14 -3 -6 -6z"/>
<path d="M5825 2671 c-3 -5 -1 -12 5 -16 5 -3 10 1 10 9 0 18 -6 21 -15 7z"/>
<path d="M5765 2650 c-13 -21 10 -31 31 -14 10 8 13 12 5 8 -7 -3 -17 -1 -21
6 -6 9 -9 9 -15 0z"/>
<path d="M5916 2623 c-6 -14 -5 -15 5 -6 7 7 10 15 7 18 -3 3 -9 -2 -12 -12z"/>
<path d="M5731 2603 c7 -12 15 -20 18 -17 3 2 -3 12 -13 22 -17 16 -18 16 -5
-5z"/>
<path d="M5960 2591 c0 -6 4 -12 8 -15 5 -3 9 1 9 9 0 8 -4 15 -9 15 -4 0 -8
-4 -8 -9z"/>
<path d="M5640 2556 c0 -2 7 -7 16 -10 8 -3 12 -2 9 4 -6 10 -25 14 -25 6z"/>
<path d="M5557 2527 c-4 -11 -12 -14 -24 -10 -14 5 -16 3 -6 -7 10 -10 15 -11
27 -1 10 8 16 9 21 1 3 -5 12 -10 18 -10 7 0 6 4 -3 10 -11 7 -11 10 -2 10 7
0 10 5 6 11 -5 8 -9 8 -14 -1 -6 -9 -9 -9 -12 1 -3 9 -6 8 -11 -4z"/>
<path d="M5758 2533 c7 -3 16 -2 19 1 4 3 -2 6 -13 5 -11 0 -14 -3 -6 -6z"/>
<path d="M5760 2490 c-13 -8 -12 -10 3 -10 9 0 17 5 17 10 0 12 -1 12 -20 0z"/>
<path d="M5420 2430 c0 -5 7 -10 16 -10 8 0 12 5 9 10 -3 6 -10 10 -16 10 -5
0 -9 -4 -9 -10z"/>
<path d="M5439 2373 c-13 -16 -12 -17 4 -4 16 13 21 21 13 21 -2 0 -10 -8 -17
-17z"/>
<path d="M5495 2381 c-3 -5 -2 -12 3 -15 5 -3 9 1 9 9 0 17 -3 19 -12 6z"/>
<path d="M5298 2366 c-10 -7 -18 -16 -18 -19 0 -12 28 4 34 19 6 17 6 17 -16
0z"/>
<path d="M5455 2341 c-3 -5 0 -13 6 -17 8 -5 9 -3 4 6 -6 10 -4 12 9 7 10 -4
15 -3 11 3 -8 13 -22 13 -30 1z"/>
<path d="M5230 2321 c0 -6 4 -13 10 -16 6 -3 7 1 4 9 -7 18 -14 21 -14 7z"/>
<path d="M5163 2313 c4 -3 -1 -16 -10 -27 -18 -21 -18 -21 4 -2 20 16 23 36 6
36 -4 0 -3 -3 0 -7z"/>
<path d="M5314 2298 c-4 -7 -4 -10 1 -6 4 4 15 2 24 -5 14 -11 14 -10 2 6 -16
20 -18 21 -27 5z"/>
<path d="M5062 2235 c-17 -20 -17 -20 4 -2 17 14 23 15 27 5 4 -11 6 -11 6 0
1 7 6 10 11 7 6 -3 10 -2 10 4 0 17 -40 8 -58 -14z"/>
<path d="M5385 2240 c-3 -5 1 -10 10 -10 9 0 13 5 10 10 -3 6 -8 10 -10 10 -2
0 -7 -4 -10 -10z"/>
<path d="M5277 2216 c-4 -10 -1 -13 8 -9 8 3 12 9 9 14 -7 12 -11 11 -17 -5z"/>
<path d="M5308 2206 c-22 -16 -23 -23 -4 -23 7 0 18 9 25 19 13 21 3 23 -21 4z"/>
<path d="M5190 2144 c0 -9 -6 -14 -13 -11 -7 3 -13 -3 -13 -13 0 -14 4 -16 17
-10 18 10 33 50 18 50 -5 0 -9 -7 -9 -16z"/>
<path d="M4870 2114 c0 -11 -5 -14 -16 -10 -15 6 -15 4 -3 -10 12 -14 14 -14
26 2 16 21 17 34 3 34 -5 0 -10 -7 -10 -16z"/>
<path d="M5105 2119 c-4 -5 3 -8 14 -6 28 4 34 12 11 14 -11 1 -22 -2 -25 -8z"/>
<path d="M4795 2080 c-3 -5 -1 -10 4 -10 6 0 11 5 11 10 0 6 -2 10 -4 10 -3 0
-8 -4 -11 -10z"/>
<path d="M4744 2049 c-4 -7 -3 -9 4 -5 5 3 13 0 15 -6 4 -9 6 -10 6 -1 1 17
-16 25 -25 12z"/>
<path d="M4710 2020 c0 -5 7 -7 15 -4 8 4 15 8 15 10 0 2 -7 4 -15 4 -8 0 -15
-4 -15 -10z"/>
<path d="M4663 2005 c0 -8 4 -15 9 -15 4 0 8 4 8 9 0 6 -4 12 -8 15 -5 3 -9
-1 -9 -9z"/>
<path d="M4630 1980 c0 -5 5 -10 11 -10 5 0 7 5 4 10 -3 6 -8 10 -11 10 -2 0
-4 -4 -4 -10z"/>
<path d="M4770 1971 c0 -6 4 -13 10 -16 6 -3 7 1 4 9 -7 18 -14 21 -14 7z"/>
<path d="M4740 1930 c0 -5 7 -7 15 -4 8 4 15 8 15 10 0 2 -7 4 -15 4 -8 0 -15
-4 -15 -10z"/>
</g>
</svg>
